<svg
  viewBox="0 0 222 37"
  version="1.1"
  xmlns="http://www.w3.org/2000/svg"
  xmlnsXlink="http://www.w3.org/1999/xlink"
>
  <g stroke="none" strokeWidth="1" fill="none" fillRule="evenodd">
    <g transform="translate(-70, -724)" fill="#000000">
      <g transform="translate(70.386, 724.034)">
        <path
          d="M27.2644887,12.845956 L40.286334,0 L57.8748681,0 L34.5892767,22.6565806 L31.6051038,23.7948299 L18.2215405,36.966 L0.135644222,36.966 L23.5116652,14.6888358 L27.2644887,12.845956 Z M0,0 L18.31197,0 L31.0625269,12.7375513 L34.9509946,14.7430381 L57.9652976,36.966 L39.4724687,36.966 L25.9984759,23.4696158 L22.0647935,21.4099267 L0,0 Z"
          fillRule="nonzero"
        ></path>
        <path
          d="M78.2062159,36.966 L65.9982359,36.966 L65.9982359,1.7408297e-13 L97.9198428,1.7408297e-13 C99.818862,1.7408297e-13 101.604844,0.216809384 103.27779,0.650428152 C104.950735,1.08404692 106.412678,1.80674487 107.663619,2.81852199 C108.914561,3.83029912 109.894213,5.21245894 110.602578,6.96500147 C111.310942,8.71754399 111.665124,10.9308065 111.665124,13.6047889 C111.665124,16.387176 111.212977,18.7088431 110.308682,20.5697903 C109.404387,22.4307375 108.130838,23.8670997 106.488036,24.8788768 C104.845234,25.890654 102.938679,26.5410821 100.768372,26.8301613 L99.9545062,26.938566 L102.124814,28.2936246 L111.710339,36.966 L96.4729711,36.966 L86.7065871,27.7516012 L78.2062159,27.7516012 L78.2062159,36.966 Z M78.2062159,12.4665396 L78.2062159,16.911132 L96.5634006,16.911132 C97.4375523,16.911132 98.0630229,16.7485249 98.4398124,16.4233109 C98.8166019,16.0980968 99.0049966,15.5380059 99.0049966,14.7430381 C99.0049966,13.8035308 98.8166019,13.1892375 98.4398124,12.9001584 C98.0630229,12.6110792 97.4375523,12.4665396 96.5634006,12.4665396 L78.2062159,12.4665396 Z"
          fillRule="nonzero"
        ></path>
        <path
          d="M161.024335,30.8411349 L128.379293,30.8411349 L128.379293,20.8137009 L161.024335,20.8137009 L161.024335,30.8411349 Z M148.771141,1.7408297e-13 L148.409423,2.38490323 L131.815613,36.966 L117.166037,36.966 L136.111013,1.7408297e-13 L148.771141,1.7408297e-13 Z M156.548076,36.966 L139.954266,2.38490323 L139.773407,1.7408297e-13 L152.433535,1.7408297e-13 L171.378511,36.966 L156.548076,36.966 Z"
          id="Shape"
          fillRule="nonzero"
        ></path>
        <polygon
          fillRule="nonzero"
          points="187.85584 23.957437 166.876201 1.7408297e-13 182.384857 1.7408297e-13 194.095475 13.0627654 205.760878 1.7408297e-13 221.088675 1.7408297e-13 200.06382 24.0658416 200.06382 36.966 187.85584 36.966"
        ></polygon>
      </g>
    </g>
  </g>
</svg>