<?xml version="1.0" encoding="UTF-8"?>
<svg viewBox="0 0 32 32" version="1.1" xmlns="http://www.w3.org/2000/svg" xmlns:xlink="http://www.w3.org/1999/xlink">
    <title>Artboard</title>
    <g id="Artboard" stroke="none" stroke-width="1" fill="none" fill-rule="evenodd">
        <g id="bluesku" transform="translate(5, 5)" fill="#000000" fill-rule="nonzero">
            <g id="Group" transform="translate(11.5, 11.5) scale(-1, 1) rotate(-180) translate(-11.5, -11.5)">
                <path d="M0.627272727,22.347198 C0.209090909,21.9294934 7.39703742e-14,19.9453964 7.39703742e-14,16.8126116 C7.39703742e-14,12.1134344 0.0522727273,11.852369 1.56818182,10.3904028 C3.08409091,8.82401043 3.08409091,8.82401043 2.09090909,7.83196192 C0.836363636,6.57884801 0.836363636,6.16114338 1.82954545,4.22925944 C2.875,2.19294934 5.59318182,0 7.05681818,0 C7.78863636,0 8.88636364,0.730983112 9.87954545,1.82745778 L11.5,3.70712864 L13.1204545,1.82745778 C14.1136364,0.730983112 15.2113636,0 15.9431818,0 C17.4068182,0 20.125,2.19294934 21.1704545,4.22925944 C22.1636364,6.16114338 22.1636364,6.57884801 20.9090909,7.83196192 C19.9159091,8.82401043 19.9159091,8.82401043 21.4318182,10.3904028 C22.9477273,11.852369 23,12.1134344 23,16.8126116 C23,19.9453964 22.7909091,21.9294934 22.3727273,22.347198 C20.7,24.0180166 17.0931818,22.3994111 13.5909091,18.431217 L11.5,16.0294154 L9.40909091,18.431217 C5.90681818,22.3994111 2.3,24.0180166 0.627272727,22.347198 Z M4.07727273,20.6763795 C5.64545455,19.8409702 8.10227273,17.3347424 9.87954545,14.7763015 C11.2909091,12.7399914 12.1795455,12.5833521 12.9636364,14.3063838 C14.375,17.4391685 19.6545455,21.9294934 20.9090909,21.1462972 C21.2227273,20.9896579 21.4318182,19.057774 21.4318182,16.9170377 C21.4318182,13.4709745 21.275,12.8444175 20.125,11.7479429 C19.2886364,10.8603205 18.2954545,10.4426159 16.9886364,10.4426159 C14.4272727,10.4426159 14.6363636,9.34614122 17.5113636,7.93638808 C18.8181818,7.30983112 19.8636364,6.47442185 19.8636364,6.05671722 C19.8636364,5.16909487 17.9818182,2.76729321 16.7272727,2.08852318 C15.525,1.46196622 13.9568182,2.92393245 12.8068182,5.63901258 C12.3886364,6.52663493 11.8659091,7.30983112 11.5522727,7.30983112 C11.2909091,7.30983112 10.4022727,6.16114338 9.61818182,4.75139023 C8.88636364,3.28942401 7.89318182,2.0363101 7.475,1.87967086 C6.53409091,1.5141793 3.13636364,4.75139023 3.13636364,5.95229106 C3.13636364,6.42220877 4.12954545,7.30983112 5.48863636,7.93638808 C8.36363636,9.34614122 8.57272727,10.4426159 6.01136364,10.4426159 C4.70454545,10.4426159 3.71136364,10.8603205 2.875,11.7479429 C1.725,12.8444175 1.56818182,13.4709745 1.56818182,16.8648247 C1.56818182,20.2586748 1.77727273,21.4073626 2.45681818,21.4073626 C2.56136364,21.4073626 3.29318182,21.0940841 4.07727273,20.6763795 Z" id="Shape"></path>
            </g>
        </g>
    </g>
</svg>