<?xml version="1.0" encoding="UTF-8"?>
<svg viewBox="0 0 32 32" version="1.1" xmlns="http://www.w3.org/2000/svg" xmlns:xlink="http://www.w3.org/1999/xlink">
    <title>Artboard</title>
    <g id="Artboard" stroke="none" stroke-width="1" fill="none" fill-rule="evenodd">
        <g id="discord" transform="translate(3.068, 6.1507)" fill="#000000" fill-rule="nonzero">
            <path d="M6.7520368,11.2593276 C6.66087702,12.9574874 7.95481859,14.4120562 9.6520368,14.5193276 C11.3452697,14.4068307 12.6333551,12.9538346 12.5420368,11.2593276 C12.6335203,9.56294316 11.3468033,8.10703843 9.6520368,7.98932758 C7.9532838,8.10183534 6.66072809,9.55930333 6.7520368,11.2593276 Z M10.5420368,11.2593276 C10.5420368,11.9393276 10.1320368,12.5193276 9.6520368,12.5193276 C9.1720368,12.5193276 8.7520368,11.9393276 8.7520368,11.2593276 C8.7520368,10.5793276 9.1620368,9.98932758 9.6520368,9.98932758 C10.1420368,9.98932758 10.5420368,10.5693276 10.5420368,11.2593276 Z" id="Shape"></path>
            <path d="M16.2120368,7.98932758 C14.5172703,8.10703843 13.2305533,9.56294316 13.3220368,11.2593276 C13.2307185,12.9538346 14.5188039,14.4068307 16.2120368,14.5193276 C17.909255,14.4120562 19.2031966,12.9574874 19.1120368,11.2593276 C19.2033455,9.55930333 17.9107898,8.10183534 16.2120368,7.98932758 L16.2120368,7.98932758 Z M16.2120368,12.5193276 C15.7320368,12.5193276 15.3220368,11.9393276 15.3220368,11.2593276 C15.3220368,10.5793276 15.7320368,9.98932758 16.2120368,9.98932758 C16.6920368,9.98932758 17.1120368,10.5693276 17.1120368,11.2593276 C17.1120368,11.9493276 16.7020368,12.5193276 16.2120368,12.5193276 Z" id="Shape"></path>
            <path d="M23.5620368,4.37932758 L23.4920368,4.28932758 C23.4920368,4.28932758 23.4920368,4.21932758 23.4920368,4.18932758 C21.756172,2.08110081 19.3606801,0.619146165 16.6920368,0.0393275848 C16.3399328,-0.062413783 15.9603826,0.036614952 15.7028688,0.297412153 C15.445355,0.558209353 15.3511427,0.93898374 15.4573368,1.28977051 C15.5635308,1.64055728 15.8531142,1.90514484 16.2120368,1.97932758 C18.4188187,2.45245214 20.4060884,3.64481396 21.8620368,5.36932758 C23.2108456,8.46489586 23.9151551,11.8027105 23.9320368,15.1793276 C22.5393346,16.4783047 20.8046624,17.3525795 18.9320368,17.6993276 L18.9320368,17.2693276 C18.9320368,17.2693276 18.9320368,17.2193276 18.9320368,17.1893276 C20.1648231,16.7110765 21.3205332,16.0540401 22.3620368,15.2393276 C22.6424903,15.0160366 22.7825157,14.660087 22.7293667,14.3055617 C22.6762178,13.9510364 22.4379692,13.6517961 22.1043667,13.5205617 C21.7707643,13.3893274 21.3924903,13.4460366 21.1120368,13.6693276 C18.7647299,15.44941 15.8763379,16.3674808 12.9320368,16.2693276 C10.0115206,16.3513522 7.15047686,15.4341249 4.8220368,13.6693276 C4.38849327,13.3241496 3.75721477,13.3957841 3.4120368,13.8293276 C3.06685883,14.2628711 3.13849327,14.8941496 3.5720368,15.2393276 C4.60641431,16.0537943 5.75549878,16.7108954 6.9820368,17.1893276 L6.9820368,17.6993276 C5.10941116,17.3525795 3.37473897,16.4783047 1.9820368,15.1793276 C2.00522859,11.8013215 2.71635522,8.46344955 4.0720368,5.36932758 C5.52798523,3.64481396 7.51525493,2.45245214 9.7220368,1.97932758 C10.2381391,1.83019849 10.5441976,1.29994031 10.415169,0.778449521 C10.2861403,0.256958733 9.76813358,-0.0694070047 9.2420368,0.0393275848 C6.5733935,0.619146165 4.17790156,2.08110081 2.4420368,4.18932758 C2.4420368,4.18932758 2.4420368,4.25932758 2.4420368,4.28932758 L2.3720368,4.37932758 C0.432036798,8.37932758 0.212036798,12.0293276 0.00203679829,15.5193276 C-0.0162585579,15.8057155 0.0893639691,16.0861615 0.292036798,16.2893276 C2.32446336,18.360759 5.03868449,19.6255008 7.9320368,19.8493276 L7.9320368,19.8493276 C8.19437668,19.848223 8.44577616,19.7440717 8.6320368,19.5593276 C8.82289244,19.3722561 8.93092737,19.1165735 8.9320368,18.8493276 L8.9320368,17.8493276 C11.5631835,18.4648599 14.3008901,18.4648599 16.9320368,17.8493276 L16.9320368,18.8493276 C16.9331462,19.1165735 17.0411812,19.3722561 17.2320368,19.5593276 C17.4182974,19.7440717 17.6696969,19.848223 17.9320368,19.8493276 L17.9320368,19.8493276 C20.8538334,19.6627027 23.6066073,18.4143517 25.6720368,16.3393276 C25.8747096,16.1361615 25.9803322,15.8557155 25.9620368,15.5693276 C25.7220368,12.0293276 25.5020368,8.41932758 23.5620368,4.37932758 Z" id="Path"></path>
            <path d="M20.4220368,5.56932758 C20.5445424,5.33337706 20.5680492,5.0583565 20.4873627,4.80503858 C20.4066763,4.55172066 20.228439,4.34095933 19.9920368,4.21932758 C17.7898914,3.169664 15.3707222,2.65567621 12.9320368,2.71932758 C10.4933514,2.65567621 8.07418219,3.169664 5.8720368,4.21932758 C5.63563462,4.34095933 5.45739731,4.55172066 5.37671086,4.80503858 C5.29602441,5.0583565 5.31953119,5.33337706 5.4420368,5.56932758 C5.69895435,6.05797329 6.30324986,6.24597634 6.7920368,5.98932758 C8.71126455,5.0917787 10.8142267,4.65680119 12.9320368,4.71932758 C15.0498469,4.65680119 17.152809,5.0917787 19.0720368,5.98932758 C19.2134947,6.06572284 19.3712866,6.10688594 19.5320368,6.10932976 C19.9063935,6.11010624 20.2498331,5.90172716 20.4220368,5.56932758 Z" id="Path"></path>
        </g>
    </g>
</svg>