<?xml version="1.0" encoding="UTF-8"?>
<svg viewBox="0 0 32 32" version="1.1" xmlns="http://www.w3.org/2000/svg" xmlns:xlink="http://www.w3.org/1999/xlink">
    <title>Artboard</title>
    <g id="Artboard" stroke="none" stroke-width="1" fill="none" fill-rule="evenodd">
        <g id="github-outline-svgrepo-com" transform="translate(1, 2)" fill="#000000" fill-rule="nonzero">
            <rect id="Rectangle" opacity="0" x="0" y="0" width="29" height="29"></rect>
            <path d="M19.6233333,26.5833333 C18.9559893,26.5833333 18.415,26.0423441 18.415,25.375 L18.415,22.2333333 C18.4909262,21.5025354 18.2538549,20.7737607 17.7625,20.2275 C17.4558132,19.8948806 17.3606338,19.418802 17.5158612,18.993835 C17.6710887,18.5688681 18.0507129,18.2662207 18.4995833,18.2095833 C21.4479167,17.8591667 24.1666667,16.9166667 24.1666667,11.8054167 C24.1675966,10.8509265 23.8858957,9.91752963 23.3570833,9.12291667 C22.869104,8.39142579 22.6909558,7.49633941 22.8616667,6.63375 C22.9705784,6.07105495 22.9705784,5.49269505 22.8616667,4.93 C21.9568724,5.23592161 21.1049563,5.68022238 20.33625,6.24708333 C20.0419673,6.45606024 19.6696729,6.52254137 19.32125,6.42833333 C17.1406091,5.81215292 14.8318909,5.81215292 12.65125,6.42833333 C12.3028271,6.52254137 11.9305327,6.45606024 11.63625,6.24708333 C10.8628403,5.67365475 10.0018942,5.22890061 9.08666667,4.93 C8.97175784,5.49210418 8.97175784,6.07164582 9.08666667,6.63375 C9.24506163,7.50719678 9.05882947,8.40804072 8.56708333,9.14708333 C8.04056641,9.9472692 7.75918816,10.8837968 7.7575,11.8416667 C7.7575,16.5420833 10.0291667,17.79875 13.4366667,18.23375 C13.8914521,18.2901829 14.275175,18.599033 14.4275,19.03125 C14.5706147,19.4501024 14.4732629,19.9136827 14.17375,20.2395833 C13.6986063,20.747478 13.457622,21.4309972 13.5091667,22.1245833 L13.5091667,25.375 C13.5091667,26.0423441 12.9681774,26.5833333 12.3008333,26.5833333 C11.6334893,26.5833333 11.0925,26.0423441 11.0925,25.375 L11.0925,24.68625 C8.68093081,24.9635899 6.29058576,24.0156163 4.72458333,22.1608333 C4.32825436,21.7215421 3.85274685,21.3608123 3.32291667,21.0975 C2.9041716,20.989576 2.57481196,20.6664523 2.45890434,20.2498465 C2.34299672,19.8332406 2.45815024,19.386445 2.76098768,19.0777631 C3.06382513,18.7690813 3.50833828,18.6454093 3.92708333,18.7533333 C4.85659341,19.0919508 5.68714139,19.6567235 6.34375,20.3966667 C7.55208333,21.605 8.76041667,22.6683333 11.05625,22.2333333 C11.0158844,21.5845738 11.1105163,20.9344935 11.3341667,20.3241667 C8.845,19.6958333 5.2925,17.9075 5.2925,11.8658333 C5.2893151,10.4347209 5.70974885,9.03467647 6.50083333,7.84208333 C6.64777033,7.62193045 6.70404351,7.35355068 6.65791667,7.09291667 C6.41374658,5.78861064 6.55223321,4.44151345 7.05666667,3.21416667 C7.19542948,2.88284598 7.47440678,2.63043795 7.81791667,2.52541667 C8.22875,2.40458333 9.70291667,2.16291667 12.4941667,3.97541667 C14.7537205,3.43167135 17.1100295,3.43167135 19.3695833,3.97541667 C22.1608333,2.16291667 23.635,2.3925 24.03375,2.52541667 C24.3772599,2.63043795 24.6562372,2.88284598 24.795,3.21416667 C25.3004334,4.44549852 25.438915,5.79674347 25.19375,7.105 C25.1438057,7.34311745 25.1917038,7.59131639 25.3266667,7.79375 C26.1200396,8.98976927 26.5405752,10.394358 26.5350547,11.8295833 C26.5350547,17.9558333 23.0066667,19.7320833 20.4933333,20.2879167 C20.7147376,20.9363059 20.8050984,21.6222262 20.7591667,22.3058333 L20.7591667,25.375 C20.7603197,26.0150267 20.262208,26.5449327 19.6233333,26.5833333 L19.6233333,26.5833333 Z" id="Path"></path>
        </g>
    </g>
</svg>