<?xml version="1.0" encoding="UTF-8"?>
<svg viewBox="0 0 32 32" version="1.1" xmlns="http://www.w3.org/2000/svg" xmlns:xlink="http://www.w3.org/1999/xlink">
    <title>Artboard</title>
    <g id="Artboard" stroke="none" stroke-width="1" fill="none" fill-rule="evenodd">
        <g id="medium" transform="translate(4, 6)" fill="#000000" fill-rule="nonzero">
            <path d="M10.8171016,19 C10.6172319,19 10.4348855,18.8823889 10.3503919,18.6954491 L3.19851386,2.98042452 L0.229384194,0.961993974 C0.0398086767,0.833830296 -0.0436438771,0.594422432 0.022343208,0.372759401 C0.0882724605,0.151214275 0.287043373,0 0.514730625,0 L7.72640769,0 C7.93142453,0 8.1168361,0.123860114 8.19924766,0.316105631 L13.3504621,12.3932626 C13.4019332,12.5150594 13.4071381,12.6537167 13.3627805,12.7796991 L11.3023178,18.6523545 C11.2322824,18.8529714 11.049936,18.9905086 10.8407552,19 C10.832543,19 10.8253139,19 10.8171016,19 Z M2.21564751,1.05018756 L3.89082885,2.18856872 C3.97011745,2.24209798 4.0330394,2.31673239 4.07219212,2.40492598 L10.7553363,17.0918704 L12.3232959,12.6222358 L7.38849136,1.05018756 L2.21564751,1.05018756 Z" id="Shape"></path>
            <path d="M4.01783208,15.3809524 C3.77145062,15.3809524 3.57142857,15.1471259 3.57142857,14.8589744 L3.57142857,2.33150183 C3.57142857,2.04335027 3.77145062,1.80952381 4.01783208,1.80952381 C4.26426366,1.80952381 4.46428571,2.04335027 4.46428571,2.33150183 L4.46428571,14.8589744 C4.46428571,15.1471259 4.26426366,15.3809524 4.01783208,15.3809524 Z" id="Path"></path>
            <path d="M6.8275631,18.9034332 L0.524963607,18.9034332 C0.312862279,18.9034332 0.120573586,18.775267 0.0396719955,18.578832 C-0.0411706289,18.382515 0.00393849411,18.1566619 0.153122914,18.0065648 L3.30445215,14.8558819 C3.50930063,14.6510754 3.84222365,14.6510754 4.04707214,14.8558819 L7.19834241,18.0065648 C7.34858822,18.1566619 7.39369734,18.382515 7.31179332,18.578832 C7.22983034,18.775267 7.0397234,18.9034332 6.8275631,18.9034332 Z M1.79285428,17.8532252 L5.55967243,17.8532252 L3.67623387,15.9701729 L1.79285428,17.8532252 Z M11.0292568,19 C10.9714699,19 10.9136831,18.9905084 10.8548938,18.9705819 C10.5817625,18.8750173 10.437885,18.5746463 10.5334692,18.30163 L16.8360097,0.351468425 C16.9326553,0.0773319515 17.2267786,-0.0665160046 17.5061603,0.0300507791 C17.7792916,0.125615343 17.9231691,0.425986383 17.8275849,0.699061683 L11.5250444,18.6492822 C11.4483884,18.8645235 11.2456626,19 11.0292568,19 Z" id="Shape"></path>
            <path d="M24.4641779,19 L14.8215601,19 C14.6061236,19 14.4111361,18.8732555 14.3275958,18.6769467 C14.2439954,18.4816453 14.2879608,18.2557687 14.4379604,18.103782 L16.428613,16.087721 L16.428613,0.527776132 C16.428613,0.236423798 16.6685883,0 16.9643173,0 L24.4641779,0 C24.6806369,0 24.876707,0.128759126 24.9591646,0.326134482 C25.0416825,0.523569092 24.995612,0.750452982 24.8434472,0.90143239 L22.8581475,2.85735047 L22.9342299,16.1488712 L24.8499428,18.1058559 C24.9988598,18.2589684 25.0416825,18.4837784 24.9569994,18.6790799 C24.8734592,18.8732555 24.6784717,19 24.4641779,19 Z M16.0900613,17.9444477 L23.2042172,17.9444477 L22.0149259,16.729502 C21.9195974,16.631318 21.8660691,16.5014923 21.8649263,16.3663337 L21.7856563,2.64208038 C21.7846338,2.50058163 21.8414099,2.36542306 21.9420913,2.26629097 L23.1710176,1.05555226 L17.5000216,1.05555226 L17.5000216,16.3019838 C17.5000216,16.439157 17.4454107,16.5711158 17.347917,16.6703664 L16.0900613,17.9444477 Z" id="Shape"></path>
        </g>
    </g>
</svg>