<?xml version="1.0" encoding="UTF-8"?>
<svg viewBox="0 0 32 32" version="1.1" xmlns="http://www.w3.org/2000/svg" xmlns:xlink="http://www.w3.org/1999/xlink">
    <title>Artboard</title>
    <g id="Artboard" stroke="none" stroke-width="1" fill="none" fill-rule="evenodd">
        <g id="reddit" transform="translate(3.0057, 4.0151)" fill="#000000" fill-rule="nonzero">
            <path d="M16.3042657,17.2649267 C14.4308404,18.9700922 11.567691,18.9700922 9.69426566,17.2649267 C9.29511975,16.9277614 8.7036877,16.9547113 8.33685958,17.3267798 C7.97003145,17.6988484 7.95147296,18.2906032 8.29426566,18.6849267 C10.9358489,21.1577748 15.0426824,21.1577748 17.6842657,18.6849267 C18.0343326,18.295671 18.0249319,17.7023053 17.6627098,17.3243344 C17.3004877,16.9463635 16.7080588,16.9117331 16.3042657,17.2449267 L16.3042657,17.2649267 Z" id="Path"></path>
            <path d="M10.4942657,13.4849267 C10.4942657,12.6564996 9.82269278,11.9849267 8.99426566,11.9849267 C8.16583853,11.9849267 7.49426566,12.6564996 7.49426566,13.4849267 C7.49426566,14.3133538 8.16583853,14.9849267 8.99426566,14.9849267 C9.82269278,14.9849267 10.4942657,14.3133538 10.4942657,13.4849267 Z" id="Path"></path>
            <path d="M16.9942657,11.9849267 C16.1658385,11.9849267 15.4942657,12.6564996 15.4942657,13.4849267 C15.4942657,14.3133538 16.1658385,14.9849267 16.9942657,14.9849267 C17.8226928,14.9849267 18.4942657,14.3133538 18.4942657,13.4849267 C18.4942657,12.6564996 17.8226928,11.9849267 16.9942657,11.9849267 Z" id="Path"></path>
            <path d="M25.9944789,11.9849267 C25.9944789,10.0519301 24.4272623,8.48492669 22.4942657,8.48492669 C21.8652506,8.48750041 21.2492044,8.66400803 20.7142657,8.99492669 C18.7567714,7.85883588 16.5628116,7.19140663 14.3042657,7.04492669 L15.6342657,2.77492669 L19.0842657,3.77492669 C19.4613278,5.18588127 20.7996731,6.12028652 22.2541448,5.98807139 C23.7086165,5.85585626 24.8565375,4.69544315 24.9730029,3.23962567 C25.0894683,1.78380818 24.1406326,0.455654544 22.7256797,0.0938854386 C21.3107267,-0.267883667 19.8408492,0.441863768 19.2442657,1.77492669 L15.2442657,0.624926689 C14.7231347,0.475052917 14.1775089,0.767827735 14.0142657,1.28492669 L12.2542657,6.98492669 C9.79330951,7.07432287 7.3909849,7.76070133 5.25426566,8.98492669 C3.72750191,8.0904344 1.77292364,8.48011517 0.705922685,9.89172169 C-0.361078267,11.3033282 -0.202788716,13.2900773 1.07426566,14.5149267 C1.01286662,14.8446855 0.982732954,15.179504 0.984265657,15.5149267 C0.994265657,20.1749267 6.37426566,23.9849267 12.9942657,23.9849267 C19.6142657,23.9849267 24.9942657,20.1749267 24.9942657,15.4849267 C24.9928392,15.1666394 24.9660881,14.8489702 24.9142657,14.5349267 C25.6135574,13.8723391 26.0049527,12.9482112 25.9944789,11.9849267 Z M21.9942657,1.98492669 C22.5465504,1.98492669 22.9942657,2.43264194 22.9942657,2.98492669 C22.9942657,3.53721144 22.5465504,3.98492669 21.9942657,3.98492669 C21.4419809,3.98492669 20.9942657,3.53721144 20.9942657,2.98492669 C20.9942657,2.43264194 21.4419809,1.98492669 21.9942657,1.98492669 Z M12.9942657,21.9849267 C7.48426566,21.9849267 2.99426566,19.0649267 2.99426566,15.4849267 C2.99289197,15.1130702 3.04337811,14.7428385 3.14426566,14.3849267 C3.14426566,14.3849267 3.14426566,14.3849267 3.14426566,14.3149267 C3.14899975,14.2483441 3.14899975,14.1815093 3.14426566,14.1149267 C3.15453037,14.0520093 3.15453037,13.9878441 3.14426566,13.9249267 C3.14873466,13.8650099 3.14873466,13.8048435 3.14426566,13.7449267 C3.14426566,13.6849267 3.09426566,13.6249267 3.06426566,13.5749267 L2.94426566,13.4349267 C2.89919818,13.3832403 2.84893366,13.3363268 2.79426566,13.2949267 C2.79426566,13.2949267 2.79426566,13.2949267 2.79426566,13.2949267 C2.3010511,13.0449784 1.99135552,12.5378519 1.99424533,11.9849267 C1.99537974,11.2461613 2.53423556,10.6182033 3.26426566,10.5049267 C3.18426566,10.5849267 3.10426566,10.6449267 3.03426566,10.7249267 C2.70238104,11.1309923 2.74057861,11.7244682 3.12178001,12.0846378 C3.50298141,12.4448074 4.09766835,12.4492982 4.48426566,12.0949267 C4.87567982,11.6784754 5.31162374,11.3062464 5.78426566,10.9849267 C7.93966797,9.62609192 10.4468668,8.93061375 12.9942657,8.98492669 L12.9942657,8.98492669 C15.549845,8.91520089 18.0678324,9.6117396 20.2242657,10.9849267 C20.7018795,11.3036979 21.1414105,11.6761249 21.5342657,12.0949267 C21.7244695,12.2944609 21.9886055,12.4066282 22.2642657,12.4049267 C22.5203533,12.406599 22.7673231,12.3099586 22.9542657,12.1349267 C23.3419893,11.7448892 23.3419893,11.1149641 22.9542657,10.7249267 C22.8642657,10.6349267 22.7642657,10.5549267 22.6842657,10.4649267 C23.4454353,10.5619465 24.0106549,11.2177738 23.9942657,11.9849267 C23.997785,12.5115538 23.7193162,12.9998277 23.2642657,13.2649267 L23.2642657,13.2649267 C23.2073742,13.3036151 23.156781,13.3508353 23.1142657,13.4049267 C23.0686595,13.4464799 23.028355,13.4935019 22.9942657,13.5449267 C22.9595067,13.59742 22.9325586,13.6546847 22.9142657,13.7149267 C22.8854334,13.7716123 22.8652113,13.8322788 22.8542657,13.8949267 C22.8490248,13.9581516 22.8490248,14.0217018 22.8542657,14.0849267 C22.8495316,14.1515093 22.8495316,14.2183441 22.8542657,14.2849267 C22.8542657,14.2849267 22.8542657,14.2849267 22.8542657,14.3449267 C22.9547187,14.7163724 23.0018569,15.1002124 22.9942657,15.4849267 C22.9942657,19.0649267 18.5042657,21.9849267 12.9942657,21.9849267 Z" id="Shape"></path>
        </g>
    </g>
</svg>