<?xml version="1.0" encoding="UTF-8"?>
<svg viewBox="0 0 32 32" version="1.1" xmlns="http://www.w3.org/2000/svg" xmlns:xlink="http://www.w3.org/1999/xlink">
    <title>Artboard</title>
    <g id="Artboard" stroke="none" stroke-width="1" fill="none" fill-rule="evenodd">
        <g id="telegram" transform="translate(2.282, 3.7675)" fill="#000000" fill-rule="nonzero">
            <path d="M26.3080028,0.522527806 C25.6762092,-0.00819237576 24.8030001,-0.146674882 24.0380028,0.162527806 L1.12800285,9.33252781 C0.445075368,9.61620422 0,10.2830265 0,11.0225278 C0,11.7620292 0.445075368,12.4288514 1.12800285,12.7125278 L2.60800285,13.3225278 C3.11610843,13.537471 3.70229777,13.3003104 3.91800285,12.7925278 C4.02064389,12.5472547 4.02138114,12.2712034 3.92005163,12.0253856 C3.81872213,11.7795677 3.62366933,11.5842238 3.37800285,11.4825278 L2.27800285,11.0325278 L24.7880028,2.03252781 C24.8585652,1.98926113 24.9474405,1.98926113 25.0180028,2.03252781 C25.0844724,2.08896833 25.1150994,2.17702081 25.0980028,2.26252781 L20.9880028,21.4425278 C20.9605759,21.5815137 20.8616795,21.6956249 20.7280028,21.7425278 C20.5967285,21.7946191 20.4475492,21.7716684 20.3380028,21.6825278 L12.3380028,15.4425278 L20.1680028,7.53252781 C20.5138335,7.17372873 20.542713,6.61506241 20.2357221,6.22251662 C19.9287311,5.82997083 19.3795714,5.7233608 18.9480028,5.97252781 L7.46800285,12.7725278 C7.12016571,12.9297307 6.89216165,13.2712386 6.88032128,13.652766 C6.86848091,14.0342935 7.0748698,14.3892824 7.41228965,14.5677516 C7.7497095,14.7462209 8.15929678,14.7170361 8.46800285,14.4925278 L13.2980028,11.6425278 L10.9480028,14.0325278 C10.5127087,14.4415186 10.2829925,15.0236567 10.321696,15.6196906 C10.3603995,16.2157245 10.6634716,16.763266 11.1480028,17.1125278 L19.1480028,23.2625278 C19.5690637,23.5874746 20.0861364,23.7633496 20.6180028,23.7625307 C20.9012233,23.7604845 21.1819825,23.7097449 21.4480028,23.6125278 C22.2248265,23.3336624 22.800623,22.6707387 22.9680028,21.8625278 L27.0480028,2.70252781 C27.2244958,1.89487028 26.9396903,1.05584887 26.3080028,0.522527806 L26.3080028,0.522527806 Z" id="Path"></path>
        </g>
    </g>
</svg>