<?xml version="1.0" encoding="UTF-8"?>
<svg viewBox="0 0 32 32" version="1.1" xmlns="http://www.w3.org/2000/svg" xmlns:xlink="http://www.w3.org/1999/xlink">
    <title>Artboard</title>
    <g id="Artboard" stroke="none" stroke-width="1" fill="none" fill-rule="evenodd">
        <g id="twitter" transform="translate(3.0101, 4.7776)" fill="#000000" fill-rule="nonzero">
            <path d="M25.7598799,3.3323808 C25.6955795,3.25269924 25.6177182,3.18499376 25.5298799,3.1323808 C25.7530729,2.70222252 25.908248,2.24007057 25.9898799,1.7623808 C26.0543508,1.37130516 25.8817632,0.979060586 25.5498799,0.762380798 C25.2161474,0.542600337 24.7836124,0.542600337 24.4498799,0.762380798 C23.7562462,1.21306834 22.9820521,1.52546246 22.1698799,1.6823808 C20.2577834,-0.112478796 17.424283,-0.512690721 15.0898799,0.682380798 C12.6441003,1.96271168 11.3703127,4.73217234 11.9898799,7.4223808 C12.1003369,7.97466554 12.6375951,8.33283773 13.1898799,8.22238078 C13.7421646,8.11192383 14.1003368,7.57466554 13.9898799,7.0223808 C13.5642178,5.23738853 14.3826013,3.38784181 15.9898799,2.5023808 C17.7239262,1.62212826 19.8344834,2.03434645 21.1098799,3.5023808 C21.3399747,3.73367788 21.6684339,3.83818762 21.9898799,3.7823808 L22.2398799,3.7823808 C22.0095398,4.02086493 21.912381,4.35801175 21.9804836,4.682501 C22.0485863,5.00699024 22.2730947,5.27662666 22.5798799,5.4023808 C22.3191869,5.61625699 22.1838369,5.9471126 22.2198799,6.2823808 C22.5567643,10.6084875 20.7246444,14.8197406 17.3298799,17.5223808 C13.8387163,20.5180924 9.00450466,21.4008615 4.67987989,19.8323808 C6.36882875,19.5493862 7.94298799,18.7935124 9.21987989,17.6523808 C9.48323331,17.3516806 9.54222069,16.9230389 9.36987989,16.5623808 C9.19991578,16.2051524 8.83533642,15.9817005 8.43987989,15.9923808 C7.28621865,15.9833646 6.19263161,15.4766693 5.43987989,14.6023808 C5.78853661,14.5352485 6.1254577,14.4173261 6.43987989,14.2523808 C6.82543607,14.0628415 7.04683877,13.6482146 6.98987989,13.2223808 C6.93484966,12.8120561 6.63266883,12.4780667 6.22987989,12.3823808 C4.90012356,12.0642227 3.7924701,11.1485625 3.22987989,9.9023808 C3.46987989,9.9023808 3.70987989,9.9523808 3.96987989,9.9623808 C4.40239196,9.99442892 4.80626045,9.74403046 4.96987989,9.3423808 C5.1163384,8.94115451 4.99179727,8.49119947 4.65987989,8.2223808 C2.98987989,6.7023808 2.57987989,5.0723808 2.81987989,3.9223808 C4.70605337,5.91893561 7.14217537,7.31100532 9.81987989,7.9223808 C10.1771455,7.99026128 10.5434863,7.86238649 10.7809053,7.58692564 C11.0183243,7.31146479 11.0907519,6.93026694 10.9709053,6.58692562 C10.8510587,6.2435843 10.5571455,5.99026125 10.1998799,5.9223808 C7.48919632,5.28723534 5.08046422,3.7367465 3.37987989,1.5323808 C3.1978601,1.30166528 2.92357111,1.16269219 2.62987989,1.1523808 C2.33383424,1.14141344 2.04816347,1.26227415 1.84987989,1.4823808 C0.524557323,3.22907553 0.401625494,5.60840125 1.53987989,7.4823808 L1.44987989,7.4823808 C1.14945638,7.64571392 0.953321309,7.95123201 0.929879893,8.2923808 C0.896872723,9.99546266 1.60908475,11.6280718 2.87987989,12.7623808 C2.64238887,13.0381289 2.57344924,13.4211268 2.69987989,13.7623808 C3.27900131,15.3064541 4.4127794,16.5792805 5.87987989,17.3323808 C4.31664827,17.9206423 2.66013276,18.2221349 0.989879893,18.2223808 C0.541388924,18.2269584 0.150804986,18.5295902 0.0343701903,18.9627277 C-0.0820646056,19.3958651 0.104134208,19.853546 0.489879893,20.0823808 C3.05026988,21.6559734 5.98512047,22.515712 8.98987989,22.5723808 C12.5071399,22.5321341 15.9009471,21.270062 18.5898799,19.0023808 C22.3553477,16.0040757 24.468256,11.3920684 24.2798799,6.5823808 C25.037495,6.01591966 25.6029643,5.23054564 25.8998799,4.3323808 C26.037289,3.99823218 25.9837692,3.61594763 25.7598799,3.3323808 Z" id="Path"></path>
        </g>
    </g>
</svg>