<?xml version="1.0" encoding="UTF-8"?>
<svg viewBox="0 0 32 32" version="1.1" xmlns="http://www.w3.org/2000/svg" xmlns:xlink="http://www.w3.org/1999/xlink">
    <title>Artboard</title>
    <g id="Artboard" stroke="none" stroke-width="1" fill="none" fill-rule="evenodd" stroke-linejoin="round">
        <g id="youtube-outline-svgrepo-com" transform="translate(4, 7)" stroke="#000000" stroke-width="1.142512">
            <path d="M21.3762545,0.507758089 C22.4095636,0.787627186 23.2216364,1.60924179 23.4981818,2.6547605 C23.9980364,4.54785627 24,8.50005519 24,8.50005519 C24,8.50005519 24,12.4521548 23.4981818,14.3452505 C23.2216364,15.3908134 22.4095636,16.2124059 21.3762545,16.4922309 C19.5054545,17 12,17 12,17 C12,17 4.49455636,17 2.62363636,16.4922309 C1.59038182,16.2124059 0.778396364,15.3908134 0.501807273,14.3452505 C0,12.4521548 0,8.50005519 0,8.50005519 C0,8.50005519 0,4.54785627 0.501807273,2.6547605 C0.778396364,1.60924179 1.59038182,0.787627186 2.62363636,0.507758089 C4.49455636,0 12,0 12,0 C12,0 19.5054545,0 21.3762545,0.507758089 Z M15.8328,8.50038635 L9.59768727,12.1426364 L9.59768727,4.85803697 L15.8328,8.50038635 Z" id="Shape"></path>
        </g>
    </g>
</svg>